<?xml version="1.0" encoding="UTF-8" standalone="no"?>
<svg width="1096px" height="1096px" viewBox="0 0 1096 1096" version="1.1" xmlns="http://www.w3.org/2000/svg" xmlns:xlink="http://www.w3.org/1999/xlink" xmlns:sketch="http://www.bohemiancoding.com/sketch/ns">
    <!-- Generator: Sketch 3.0.2 (7799) - http://www.bohemiancoding.com/sketch -->
    <title>interconnect</title>
    <description>Created with Sketch.</description>
    <defs></defs>
    <g id="Page-1" stroke="none" stroke-width="1" fill="none" fill-rule="evenodd" sketch:type="MSPage">
        <g id="Rectangle-18" sketch:type="MSLayerGroup" fill="#F7F7F7">
            <rect id="Rectangle-1" sketch:type="MSShapeGroup" x="0" y="0" width="1096" height="1096"></rect>
        </g>
        <g id="Small-Red-10" sketch:type="MSLayerGroup" transform="translate(165.000000, 139.000000)">
            <path d="M766.595364,383.096277 C766.595364,594.684149 595.085102,766.189628 383.5,766.189628 C379.052057,766.189628 374.647466,766.007553 370.251545,765.851489 C313.191284,798.390798 247.209125,816.988404 176.813705,816.988404 C153.784977,816.988404 131.241795,814.890213 109.296875,811.075319 C144.195455,786.018404 173.796386,754.04266 196.079455,717.168245 C79.3231136,651.543404 0.404636364,526.562287 0.404636364,383.096277 C0.404636364,171.517074 171.914898,0.00292553192 383.5,0.00292553192 C595.076432,0.00292553192 766.595364,171.517074 766.595364,383.096277 L766.595364,383.096277 Z M383.498305,53.3826676 C201.781878,53.3826676 54.474223,200.710335 54.474223,382.409635 C54.474223,564.108934 201.793939,711.448662 383.510366,711.448662 C565.226792,711.448662 712.534447,564.120994 712.534447,382.409635 C712.534447,200.710335 565.214732,53.3826676 383.498305,53.3826676 Z" id="Shape-3" fill="#D0011B" sketch:type="MSShapeGroup"></path>
            <g id="Path-20-+-Path-18-+-Path-19" transform="translate(204.000000, 223.000000)" fill="#000000" sketch:type="MSShapeGroup">
                <path d="M-0.297713907,196.705355 L359.409815,196.705355 C344.850523,296.306844 269.963714,372.302332 179.556051,372.302332 C89.1483877,372.302332 14.2720297,296.306844 -0.297713907,196.705355 L-0.297713907,196.705355 Z" id="Path-20"></path>
                <path d="M111.147843,88.5496515 C128.96684,88.5496515 143.408723,68.7735014 143.408723,44.3569634 C143.408723,19.9300442 128.96684,0.153894179 111.147843,0.153894179 C93.318358,0.153894179 78.8764751,19.9300442 78.8764751,44.3569634 C78.8764751,68.7735014 93.318358,88.5496515 111.147843,88.5496515 L111.147843,88.5496515 Z" id="Path-18"></path>
                <path d="M248.083268,88.5496515 C265.878397,88.5496515 280.338905,68.7735014 280.338905,44.3569634 C280.338905,19.9300442 265.878397,0.153894179 248.083268,0.153894179 C230.267166,0.153894179 215.806657,19.9300442 215.806657,44.3569634 C215.806657,68.7735014 230.25668,88.5496515 248.083268,88.5496515 L248.083268,88.5496515 Z" id="Path-19"></path>
            </g>
        </g>
    </g>
</svg>