<?xml version="1.0" encoding="UTF-8" standalone="no"?>
<svg width="250px" height="250px" viewBox="0 0 250 250" version="1.1" xmlns="http://www.w3.org/2000/svg" xmlns:xlink="http://www.w3.org/1999/xlink" xmlns:sketch="http://www.bohemiancoding.com/sketch/ns">
    <!-- Generator: Sketch 3.0.2 (7799) - http://www.bohemiancoding.com/sketch -->
    <title>chainy-logo</title>
    <description>Created with Sketch.</description>
    <defs></defs>
    <g id="Page-1" stroke="none" stroke-width="1" fill="none" fill-rule="evenodd" sketch:type="MSPage">
        <rect id="Rectangle-10" fill="#F0DB4F" sketch:type="MSShapeGroup" x="0" y="0" width="250" height="250"></rect>
        <g id="icon_30892" sketch:type="MSLayerGroup" transform="translate(125.000000, 125.000000) rotate(-225.000000) translate(-125.000000, -125.000000) translate(0.000000, 10.000000)" fill="#000000">
            <path d="M211.654111,171.577976 C212.681042,169.523852 212.065428,166.872051 210.286685,165.686133 L183.886105,148.082957 C181.49992,146.491247 179.026568,148.614575 178.784136,149.662084 C177.757205,151.716207 178.372819,154.368008 180.151562,155.553926 L206.552142,173.157103 C208.23827,174.283253 210.749758,173.669847 211.654111,171.577976 L211.654111,171.577976 L211.654111,171.577976 Z" id="Shape" sketch:type="MSShapeGroup"></path>
            <path d="M173.497649,213.937265 C171.694446,214.98206 169.620499,214.509922 168.574325,212.411193 L153.864813,182.885813 C152.534753,180.217471 154.309042,177.451656 155.181729,177.180558 C156.900818,176.032196 159.116708,176.720604 160.107681,178.709676 L174.817194,208.23201 C175.810796,210.224127 175.216738,212.788903 173.497649,213.937265 L173.497649,213.937265 L173.497649,213.937265 Z" id="Shape" sketch:type="MSShapeGroup"></path>
            <path d="M126.492571,230 C124.30228,230 122.50996,228.023415 122.50996,225.607945 L122.50996,189.753909 C122.50996,187.335235 124.30228,185.35865 126.492571,185.35865 C128.685767,185.35865 130.478088,187.335235 130.478088,189.753909 L130.478088,225.604741 C130.478088,228.023415 128.685767,230 126.492571,230 L126.492571,230 L126.492571,230 Z" id="Shape" sketch:type="MSShapeGroup"></path>
            <path d="M74.4933958,213.914702 C72.7441464,212.904025 72.2338391,210.097263 73.1729098,208.212897 L87.8929094,178.708415 C88.8872195,176.720546 91.1046891,176.032554 92.8223731,177.180222 C93.698313,177.451156 95.4738669,180.215299 94.1428591,182.882027 L79.4228596,212.389553 C78.4285494,214.377422 76.2110799,215.065414 74.4933958,213.914702 L74.4933958,213.914702 L74.4933958,213.914702 Z" id="Shape" sketch:type="MSShapeGroup"></path>
            <path d="M36.3354352,171.559902 C37.3629335,173.612483 39.6604961,174.326014 41.4402213,173.137843 L67.8553767,155.547886 C69.6351018,154.362858 70.2510557,151.713049 69.2235574,149.660468 C68.9809915,148.613746 66.5035486,146.492012 64.1160459,148.082527 L37.703616,165.672484 C35.8230488,166.926664 35.4006026,169.406735 36.3354352,171.559902 L36.3354352,171.559902 L36.3354352,171.559902 Z" id="Shape" sketch:type="MSShapeGroup"></path>
            <path d="M36.3539523,58.4204841 C37.261027,56.3287522 39.7697832,55.7185327 41.455907,56.8414624 L67.8564115,74.4434651 C69.6351495,75.6324495 70.2507618,78.2840736 69.2238334,80.33806 C68.981402,81.3854987 66.5053332,83.5086852 64.1191547,81.9170816 L37.7186503,64.315079 C35.9426362,63.1260945 35.3270239,60.4744705 36.3539523,58.4204841 L36.3539523,58.4204841 L36.3539523,58.4204841 Z" id="Shape" sketch:type="MSShapeGroup"></path>
            <path d="M74.5090666,16.0625872 C76.3121852,15.0178467 78.3860344,15.4899598 79.434787,17.5916242 L94.1436086,47.112395 C95.4736057,49.780595 93.6967716,52.5462636 92.8241253,52.8173479 C91.1077457,53.9686945 88.89196,53.2803232 87.8984049,51.2913567 L73.1895833,21.770586 C72.1986566,19.7785736 72.7900585,17.2108879 74.5090666,16.0625872 L74.5090666,16.0625872 L74.5090666,16.0625872 Z" id="Shape" sketch:type="MSShapeGroup"></path>
            <path d="M211.672533,58.438558 C212.607366,60.5947242 212.184919,63.0746298 210.304352,64.3287265 L183.889197,81.9175115 C181.501694,83.5079198 179.026977,81.3863276 178.784411,80.3396755 C177.756912,78.2872315 178.372866,75.6375986 180.152591,74.449507 L206.567747,56.860722 C208.347472,55.6757735 210.645035,56.386114 211.672533,58.438558 L211.672533,58.438558 L211.672533,58.438558 Z" id="Shape" sketch:type="MSShapeGroup"></path>
            <path d="M173.514362,16.0831654 C175.263818,17.0968695 175.774185,19.9005377 174.835004,21.7879148 L160.113267,51.2918802 C159.12147,53.2827586 156.903739,53.9676938 155.183221,52.8170026 C154.309809,52.5491168 152.534045,49.7819785 153.86521,47.1152974 L168.586947,17.611332 C169.578744,15.6234977 171.796475,14.9355183 173.514362,16.0831654 L173.514362,16.0831654 L173.514362,16.0831654 Z" id="Shape" sketch:type="MSShapeGroup"></path>
            <path d="M126.492571,1.63424829e-13 C128.685767,1.63424829e-13 130.478088,1.97978862 130.478088,4.39525888 L130.478088,40.2492949 C130.478088,42.6647651 128.685767,44.6413502 126.492571,44.6413502 C124.30228,44.6413502 122.50996,42.6615616 122.50996,40.2492949 L122.50996,4.39525888 C122.50996,1.97978862 124.30228,1.63424829e-13 126.492571,1.63424829e-13 L126.492571,1.63424829e-13 L126.492571,1.63424829e-13 Z" id="Shape" sketch:type="MSShapeGroup"></path>
            <path d="M143.681203,98.0168776 C144.471605,96.7851549 145.503286,95.6260723 146.931555,94.4417236 C150.714388,91.3118846 155.243249,89.5243076 159.985656,89.5243076 L171.314741,89.5243076 C165.346518,83.867858 158.199627,80.5485232 150.04324,80.5485232 L99.9595331,80.5485232 C91.8031467,80.5485232 84.6534819,83.8710162 78.685259,89.5243076 L90.0143438,89.5243076 C94.7567514,89.5243076 99.285612,91.3118846 103.065671,94.4417236 C104.49394,95.6260723 105.522849,96.7851549 106.316023,98.0168776 L143.681203,98.0168776 L143.681203,98.0168776 Z" id="Shape" sketch:type="MSShapeGroup"></path>
            <path d="M89.9601116,94.1350211 C99.6877812,94.1763107 108.046022,103.167913 108.046022,114.814753 C108.046022,120.50954 106.015489,125.683443 102.737747,129.431267 C102.457195,129.752055 102.165531,130.056963 101.868313,130.358695 L100.609993,130.358695 C94.2239531,130.358695 88.626793,125.03869 87.3879179,117.927352 L89.9573338,117.927352 C92.3656404,117.927352 93.565627,114.557487 91.8739792,112.623228 C91.3767625,112.054702 90.6989922,111.702153 89.9573338,111.702153 L83.5546272,111.702153 C82.349085,117.873358 84.6768369,124.752839 88.3573516,128.958025 C91.5073166,132.562923 95.8461573,134.795737 100.612771,134.795737 L149.387229,134.795737 C154.15662,134.795737 158.492683,132.562923 161.645426,128.958025 C165.323163,124.752839 167.650915,117.873358 166.448151,111.702153 L160.042666,111.702153 C157.631582,111.702153 156.431595,115.068842 158.126021,117.006277 C158.623238,117.574803 159.301008,117.927352 160.042666,117.927352 L162.612082,117.927352 C161.373207,125.03869 155.776047,130.358695 149.387229,130.358695 L148.131687,130.358695 C147.831691,130.056963 147.542805,129.752055 147.262253,129.431267 C136.617926,117.257191 142.953967,96.5647546 157.637137,94.3160601 L160.042666,94.1350211 L231.911312,94.1350211 C241.877868,94.1350211 250,103.422002 250,114.814753 C250,126.210679 241.877868,135.494484 231.911312,135.494484 L181.261875,135.494484 C183.800736,130.368223 185.375718,124.663908 185.845157,118.727735 L231.808535,118.829371 C233.744625,118.832547 235.333496,117.015805 235.333496,114.798872 C235.333496,112.581939 233.747403,110.768373 231.808535,110.768373 L185.845157,110.666737 C184.400729,110.663561 182.83408,110.749316 182.261864,111.702153 C183.722959,133.433181 168.439795,152.362869 149.384451,152.362869 L100.609993,152.362869 C91.60176,152.362869 83.4185176,148.157683 77.4908057,141.376663 C70.90199,133.842901 67.1131432,122.894808 68.0103554,111.702153 C67.1631426,110.749316 65.5937156,110.663561 64.1492872,110.666737 L18.185909,110.768373 C16.2470417,110.768373 14.6609482,112.581939 14.6609482,114.798872 C14.6609482,117.015805 16.2470417,118.832547 18.185909,118.829371 L64.1492872,118.727735 C64.6187265,124.663908 66.193709,130.368223 68.7353474,135.494484 L18.0859102,135.494484 C8.12213198,135.49766 -2.84217094e-14,126.213855 -2.84217094e-14,114.814753 C-2.84217094e-14,103.422002 8.12213198,94.1350211 18.0859102,94.1350211 L89.9601116,94.1350211 Z" id="Shape" sketch:type="MSShapeGroup"></path>
        </g>
    </g>
</svg>