<?xml version="1.0" encoding="UTF-8" standalone="no"?>
<svg width="247px" height="244px" viewBox="0 0 247 244" version="1.1" xmlns="http://www.w3.org/2000/svg" xmlns:xlink="http://www.w3.org/1999/xlink" xmlns:sketch="http://www.bohemiancoding.com/sketch/ns">
    <!-- Generator: Sketch 3.0.1 (7597) - http://www.bohemiancoding.com/sketch -->
    <title>chainy-logo</title>
    <description>Created with Sketch.</description>
    <defs></defs>
    <g id="Page-1" stroke="none" stroke-width="1" fill="none" fill-rule="evenodd" sketch:type="MSPage">
        <rect id="Rectangle-10" fill="#F0DB4F" sketch:type="MSShapeGroup" x="0" y="0" width="250" height="250"></rect>
        <g id="icon_30892" sketch:type="MSLayerGroup" transform="translate(130.500000, 127.500000) rotate(-225.000000) translate(-130.500000, -127.500000) translate(5.000000, 9.000000)">
            <path d="M212.500727,176.799914 C213.531766,174.683274 212.91369,171.950766 211.127832,170.728755 L184.62165,152.589829 C182.22592,150.949676 179.742674,153.137627 179.499273,154.217016 C178.468234,156.333657 179.08631,159.066165 180.872168,160.288176 L207.37835,178.427101 C209.071223,179.587526 211.592757,178.955451 212.500727,176.799914 L212.500727,176.799914 L212.500727,176.799914 Z" id="Shape" fill="#323330" sketch:type="MSShapeGroup"></path>
            <path d="M174.191639,220.448399 C172.381223,221.524993 170.298981,221.038485 169.248623,218.875881 L154.480272,188.451903 C153.144892,185.702351 154.926278,182.852359 155.802456,182.57301 C157.528421,181.389698 159.753175,182.099057 160.748112,184.148666 L175.516463,214.569506 C176.514039,216.622253 175.917605,219.265087 174.191639,220.448399 L174.191639,220.448399 L174.191639,220.448399 Z" id="Shape" fill="#323330" sketch:type="MSShapeGroup"></path>
            <path d="M126.998542,237 C124.79949,237 123,234.963258 123,232.474273 L123,195.529028 C123,193.036742 124.79949,191 126.998542,191 C129.20051,191 131,193.036742 131,195.529028 L131,232.470972 C131,234.963258 129.20051,237 126.998542,237 L126.998542,237 L126.998542,237 Z" id="Shape" fill="#323330" sketch:type="MSShapeGroup"></path>
            <path d="M74.7913694,220.42515 C73.035123,219.383712 72.5227745,216.491528 73.4656015,214.549811 L88.244481,184.147367 C89.2427684,182.098997 91.4691078,181.390067 93.1936626,182.572663 C94.0731063,182.851844 95.8557624,185.700112 94.5194305,188.448001 L79.740551,218.853583 C78.7422636,220.901952 76.5159242,221.610883 74.7913694,220.42515 L74.7913694,220.42515 L74.7913694,220.42515 Z" id="Shape" fill="#323330" sketch:type="MSShapeGroup"></path>
            <path d="M36.480777,176.78129 C37.5123853,178.896341 39.8191381,179.631588 41.6059821,178.407256 L68.1267982,160.281952 C69.9136422,159.060858 70.5320599,156.330402 69.5004516,154.215352 C69.2569155,153.136773 66.7695628,150.950465 64.3725101,152.589386 L37.8544305,170.71469 C35.966341,172.007041 35.542205,174.562592 36.480777,176.78129 L36.480777,176.78129 L36.480777,176.78129 Z" id="Shape" fill="#323330" sketch:type="MSShapeGroup"></path>
            <path d="M36.4993681,60.1984988 C37.4100711,58.0431055 39.9288623,57.4143141 41.6217306,58.57142 L68.1278371,76.7091358 C69.9136901,77.9343067 70.5317648,80.6666324 69.5007287,82.7831314 C69.2573276,83.8624486 66.7713546,86.0502539 64.3756314,84.4102102 L37.8695249,66.2724944 C36.0864067,65.0473235 35.468332,62.3149978 36.4993681,60.1984988 L36.4993681,60.1984988 L36.4993681,60.1984988 Z" id="Shape" fill="#323330" sketch:type="MSShapeGroup"></path>
            <path d="M74.8071029,16.5514485 C76.6174339,15.4749116 78.6995785,15.9613933 79.7525262,18.1270215 L94.520183,48.5462505 C95.8555001,51.2956566 94.0715587,54.1454977 93.1954218,54.4248324 C91.4721767,55.61122 89.2475279,54.9018983 88.2499985,52.852398 L73.4823416,22.433169 C72.4874513,20.3805302 73.0812187,17.7346975 74.8071029,16.5514485 L74.8071029,16.5514485 L74.8071029,16.5514485 Z" id="Shape" fill="#323330" sketch:type="MSShapeGroup"></path>
            <path d="M212.519223,60.2171228 C213.457795,62.4389115 213.033659,64.9942924 211.14557,66.2865573 L184.624754,84.4106531 C182.227701,86.0494652 179.743085,83.8633028 179.499548,82.784796 C178.46794,80.6698864 179.086358,77.9396125 180.873202,76.7153615 L207.394018,58.5912657 C209.180862,57.3702535 211.487615,58.1022131 212.519223,60.2171228 L212.519223,60.2171228 L212.519223,60.2171228 Z" id="Shape" fill="#323330" sketch:type="MSShapeGroup"></path>
            <path d="M174.208419,16.572653 C175.964873,17.617209 176.477282,20.5062062 175.534344,22.4510252 L160.75372,52.8529374 C159.757956,54.9044078 157.531354,55.6101888 155.803954,54.4244766 C154.927048,54.1484378 153.144181,51.2970822 154.480671,48.5492412 L169.261295,18.147329 C170.257059,16.0989955 172.483661,15.3900776 174.208419,16.572653 L174.208419,16.572653 L174.208419,16.572653 Z" id="Shape" fill="#323330" sketch:type="MSShapeGroup"></path>
            <path d="M126.998542,0 C129.20051,0 131,2.04004306 131,4.52902763 L131,41.4742734 C131,43.963258 129.20051,46 126.998542,46 C124.79949,46 123,43.9599569 123,41.4742734 L123,4.52902763 C123,2.04004306 124.79949,0 126.998542,0 L126.998542,0 L126.998542,0 Z" id="Shape" fill="#323330" sketch:type="MSShapeGroup"></path>
            <path d="M90.319952,97 C100.086532,97.0425462 108.478206,106.307806 108.478206,118.309115 C108.478206,124.177221 106.439551,129.508591 103.148698,133.370479 C102.867024,133.701031 102.574194,134.015218 102.275786,134.326133 L101.012433,134.326133 C94.6008489,134.326133 88.9813002,128.844215 87.7374696,121.516446 L90.3171631,121.516446 C92.7351029,121.516446 93.9398896,118.044019 92.2414751,116.050892 C91.7422695,115.465063 91.0617882,115.101784 90.3171631,115.101784 L83.8888457,115.101784 C82.6784814,121.460808 85.0155443,128.549665 88.710781,132.882834 C91.8733459,136.597447 96.2295419,138.898216 101.015222,138.898216 L149.984778,138.898216 C154.773247,138.898216 159.126654,136.597447 162.292008,132.882834 C165.984456,128.549665 168.321519,121.460808 167.113943,115.101784 L160.682837,115.101784 C158.262108,115.101784 157.057322,118.570938 158.758525,120.567338 C159.25773,121.153166 159.938212,121.516446 160.682837,121.516446 L163.26253,121.516446 C162.0187,128.844215 156.399151,134.326133 149.984778,134.326133 L148.724214,134.326133 C148.423018,134.015218 148.132976,133.701031 147.851302,133.370479 C137.164398,120.825888 143.525783,99.5036819 158.267686,97.1865488 L160.682837,97 L232.838957,97 C242.845379,97 251,106.569629 251,118.309115 C251,130.051874 242.845379,139.618229 232.838957,139.618229 L181.986922,139.618229 C184.535938,134.335952 186.117221,128.458027 186.588538,122.341188 L232.73577,122.445917 C234.679604,122.44919 236.27483,120.577156 236.27483,118.292751 C236.27483,116.008346 234.682392,114.139584 232.73577,114.139584 L186.588538,114.034855 C185.138332,114.031582 183.565416,114.119948 182.990911,115.101784 C184.45785,137.494191 169.113554,157 149.981989,157 L101.012433,157 C91.968167,157 83.7521916,152.66683 77.8007689,145.679431 C71.1855979,137.91638 67.3815958,126.635084 68.2823969,115.101784 C67.4317952,114.119948 65.8560905,114.031582 64.4058844,114.034855 L18.2586527,114.139584 C16.3120299,114.139584 14.719592,116.008346 14.719592,118.292751 C14.719592,120.577156 16.3120299,122.44919 18.2586527,122.445917 L64.4058844,122.341188 C64.8772014,128.458027 66.4584838,134.335952 69.0102888,139.618229 L18.1582538,139.618229 C8.1546205,139.621502 0,130.055146 0,118.309115 C0,106.569629 8.1546205,97 18.1582538,97 L90.319952,97 Z" id="Shape" fill="#000000" sketch:type="MSShapeGroup"></path>
            <path d="M144.255928,101 C145.049491,99.7307901 146.085299,98.536431 147.519281,97.3160369 C151.317246,94.090942 155.864222,92.2489604 160.625599,92.2489604 L172,92.2489604 C166.007904,86.420358 158.832425,83 150.643413,83 L100.359371,83 C92.1703593,83 84.9920958,86.4236124 79,92.2489604 L90.3744012,92.2489604 C95.1357784,92.2489604 99.6827545,94.090942 103.477934,97.3160369 C104.911916,98.536431 105.94494,99.7307901 106.741287,101 L144.255928,101 L144.255928,101 Z" id="Shape" fill="#000000" sketch:type="MSShapeGroup"></path>
        </g>
    </g>
</svg>