<svg xmlns="http://www.w3.org/2000/svg" xmlns:xlink="http://www.w3.org/1999/xlink" version="1.1" id="Layer_1" x="0px" y="0px" width="100px" height="100px" viewBox="0 0 100 100" enable-background="new 0 0 100 100" xml:space="preserve">
<path fill="#000000" d="M60.532,57.535l-0.008,0.007V57.54C60.527,57.54,60.529,57.537,60.532,57.535z M60.471,57.596l-0.005,0.006  C60.469,57.599,60.469,57.599,60.471,57.596L60.471,57.596z M32.792,50.377h34.416C65.815,59.938,58.65,67.233,50,67.233  C41.35,67.233,34.186,59.938,32.792,50.377z M60.524,57.542l0.008-0.007c-0.003,0.002-0.005,0.005-0.008,0.005V57.542z   M60.471,57.596L60.471,57.596l-0.005,0.006C60.469,57.599,60.469,57.599,60.471,57.596z M43.447,40.071  c1.699,0,3.076-1.905,3.076-4.257c0-2.353-1.377-4.258-3.076-4.258c-1.7,0-3.077,1.905-3.077,4.258  C40.37,38.166,41.747,40.071,43.447,40.071z M94.184,47.07c0,24.404-19.781,44.185-44.184,44.185c-0.513,0-1.021-0.021-1.528-0.039  c-6.581,3.753-14.191,5.898-22.31,5.898c-2.656,0-5.256-0.242-7.787-0.682c4.025-2.89,7.439-6.578,10.009-10.831  C14.918,78.032,5.816,63.617,5.816,47.07C5.816,22.667,25.597,2.885,50,2.885C74.402,2.885,94.184,22.667,94.184,47.07z   M77.282,46.991c0-15.066-12.215-27.282-27.282-27.282S22.719,31.925,22.719,46.991c0,15.066,12.215,27.283,27.282,27.283  S77.282,62.058,77.282,46.991z M56.554,40.071c1.697,0,3.076-1.905,3.076-4.257c0-2.353-1.379-4.258-3.076-4.258  c-1.699,0-3.078,1.905-3.078,4.258C53.476,38.166,54.854,40.071,56.554,40.071z"/>
</svg>